<svg version="1.0" xmlns="http://www.w3.org/2000/svg" width="682.667" height="682.667" viewBox="0 0 512 512"><path d="M248.5.6c-2.2.2-8.9.9-15 1.4-39.2 3.9-76.8 16.2-109 35.7C102.4 51.2 75.2 75.2 58.6 96c-16 20-31 45.9-40.1 68.9-20.4 52-24 120.2-9.4 176.8 22.3 87 93.7 149.7 188.6 165.7 59.1 9.9 137.7 2.8 184.6-16.9l3.7-1.5v-29.5c0-16.2-.2-29.5-.5-29.5-.2 0-3 1.2-6.2 2.6-12.5 5.6-30.1 11.6-44.8 15.3-38.6 9.7-90.6 11-127.5 3.2-70-14.8-118.1-62.5-132.4-131.6-6.5-31.2-6.1-71.4.9-103 15.1-68.2 65.8-127.9 127-149.5 22.7-8 42.1-11.1 68.9-11.1 35.3.1 60.9 5.3 86.2 17.7 36.4 17.7 65.1 51.8 77.2 91.4 7.7 25.2 10.1 60.9 6.2 92-4.2 33.4-15.1 60.5-29.8 74.2-6.1 5.7-11.1 8.3-18.4 9.7-6.6 1.2-14.4-.3-17.9-3.5-3.1-2.8-6.9-9.7-8.6-15.6-4.3-15.5-1.9-64.9 8.2-167.5 1.4-13.9 2.5-26.3 2.5-27.7V124h-67.7l-1.3 15c-.7 8.3-1.7 15.3-2.2 15.6-.4.3-1.3-.7-1.8-2.3-6.7-18-21.1-29.4-41.5-32.8-6.1-1-24.5-.8-31.6.5-44.7 7.8-82.9 48.6-96.8 103.5-4.7 18.5-5.5 26.8-5.6 54.5 0 21.7.3 28.1 1.8 35.4 6.8 33.6 22 57.7 45 71.5 26.8 16.1 64.1 16 88.7-.4 12.8-8.5 22.6-21.5 31.4-41.8 2.7-6.2 4.6-6.7 4.6-1.4 0 5 2.7 14.5 6.2 21.7 4.5 9.3 17 21.6 26.9 26.3 12 5.8 19.1 7.2 36.9 7.1 23.2-.1 42.8-5 60.9-15.1 29.5-16.5 54.5-46.4 67.3-80.6 15.7-42.2 17.9-98.2 5.7-144.5-9.1-34.7-27-64.8-53.9-90.6-37-35.4-83.9-56.4-141.5-63.1-11.9-1.4-52.3-2.7-60-1.9zM276 176.4c19.2 9.6 26.5 30.3 24 67.5-2.6 39.4-12.1 67.6-28.3 84.4-5.7 5.8-11 9.1-18.9 11.8-8.3 2.8-21.1 2.4-27.9-.9-20.2-9.8-29.9-36.6-26.9-74.7 2.6-32.5 13.5-61.1 29.6-77.7 10.2-10.6 18.5-14 32.9-13.5 8.6.2 10.8.7 15.5 3.1z" fill="#FF9E00"/></svg>