<svg height="100" id="Layer_1" version="1.1" width="100" xml:space="preserve" xmlns="http://www.w3.org/2000/svg"><path d="M50 3.84C24.506 3.84 3.84 24.506 3.84 50S24.506 96.16 50 96.16 96.16 75.494 96.16 50 75.494 3.84 50 3.84zm24.808 63.677c-1.97 1.232-9.975 1.599-11.913.191-1.063-.772-2.035-1.738-2.958-2.658-.646-.643-1.379-.955-1.934-1.653-.453-.571-.764-1.245-1.241-1.809-.805-.946-2.044-1.751-3.024-.595-1.476 1.739.232 5.154-1.736 6.453-.66.436-1.326.562-2.151.5l-1.827.083c-1.073.021-2.773.031-3.994-.189-1.362-.246-2.487-.99-3.719-1.536-2.338-1.037-4.565-2.45-6.26-4.407-4.613-5.33-10.809-12.66-13.216-19.361-.495-1.377-1.803-4.104-.563-5.285 1.686-1.225 9.961-1.57 11.252.324.524.77.855 1.896 1.226 2.769.462 1.088.712 2.113 1.434 3.076.639.854 1.11 1.713 1.604 2.649.555 1.051 1.079 2.059 1.754 3.026.458.658 1.669 1.967 2.434 2.064 1.868.239 1.752-4.3 1.613-5.408a21.405 21.405 0 01-.132-3.284c.03-.924.113-2.226-.434-2.98-.892-1.23-2.879-.31-3.034-1.963.328-.469.259-.885 2.45-1.607 1.726-.567 2.841-.549 3.979-.458 2.32.186 4.78-.442 7.02.31 2.14.721 1.809 3.762 1.737 5.584-.097 2.487.007 4.915 0 7.44-.003 1.149-.049 2.268 1.353 2.174 1.314-.087 1.448-1.193 2.075-2.105.872-1.272 1.673-2.562 2.561-3.829 1.197-1.713 1.559-3.638 2.686-5.393.403-.627.75-1.963 1.371-2.459.47-.377 1.363-.18 1.932-.18h1.353c1.035 0 2.091-.008 3.155.029 1.532.053 3.248-.299 4.767-.084 6.555.925-8.239 14.938-7.469 17.44.532 1.728 3.907 3.659 5.125 5.074 1.617 1.885 6.595 5.632 2.724 8.057z" fill="#4C75A3"/></svg>